<svg viewBox="0 0 256 256" xmlns="http://www.w3.org/2000/svg" fill="none" height="1em" width="1em">
  <!-- SVG created with Arrow, by QuiverAI (https://quiver.ai) -->
  <path d="m6.59 64.99c0-31.28 6.52-58.81 49.5-61.18h143.3c29.27 0 49.53 19.81 50.03 50.45v139.8c0 33.02-16.19 58.11-53.22 58.11l-131.3 0.43c-40.19 0-58.3-17.67-58.3-58.91l-0.02-128.7z" fill="url(#paint0_linear_221_39)"/>
  <path d="m255.1 189.8v66.19h-255.1v-256h255.1v189.8z" fill="#fff" fill-opacity=".05"/>
  <path d="m203.6 70h-27.23v46.89h-4.25v-6.77h-2.49v-6.89h-2.5v-5.34h-2.34v-5.56h-2.44v-6.27h-2.48v-6.3h-2.49v-6.86h-3.68v-2.9h-31.68 0.05v51.74h-16.31v-1.73h-4.31v-2.71h-5.97v-2.29h-4.36v-2.45h-5.32v-1.75h-4.61v-2.09h-3.74v-3.55h-2.24v-7.28h2.24v-2.57h10.48v2.57h2.49v8.01h25.27v-10.94h-2.03v-5.75h-2.49v-6.03h-2.89v-4.74h-3.61v-2.78h-6.58v-2.76h-3.36v-2.67h-26.75v2.53h-5.8v2.65h-4.15v3.03h-4.85v4.74h-2.48v4.83h-2.49v23.81h2.03v5.48h2.49v4.67h3.19v3.79h-3.68v6.73h19.83v7.3h16.47v17.91h-14.92v-14.2h-31.2v1.19h-5.52v10.07h9.94v13.32h8.88v14.91l55.35 0.01v-14.89h6.22v-34.39h4.78v48.24h23.76v-18.18h2.77v-26.35h2.3v6h3.07v6.53h2.3v4.34h2.5v5.32h2.75v1.33h3.72v12.11h2.1v3.76h-1.31v5.91h43.74v-10.81h-4.08v-42.64h-2.49v-10.12h5.52v-2.45h0.41v-9.35h-5.53v-37.36z" fill="#000"/>
  <path d="m205.2 175.5h-32.69v2.68h32.69v-2.68z" fill="#fff"/>
  <path d="m182.2 124.3v-0.38h-7.18v0.38h-13.07v2.18h13.07v6.43h2.49v5.68h2.55v-12.11h8.73v-2.18h-6.59z" fill="#000"/>
  <path d="m200.1 109.1v-34.27h-19.55v49.12h-7.92v-4.75h-2.99v-6.67h-2.5v-4.38h-2.34v-5.3h-2.44v-4.92h-2.48v-5.88h-2.49v-6.79h-1.99v-6.03h-3.51v-4.4h-25.65v62.62h-3.68v40.37h19.59v-19.59h4.49v-51.53h2.49v19.81h3.92v5.42h2.14v5.89h2.65v6.3h2.14v5.14h2.49v6.47h9.66v17.59h28.9v-12.11h-5.65v-5.79h6.82v-23.17h-3.22v-20.49h8.83v-2.66h-7.71z" fill="#fff"/>
  <path d="m111.6 126.5v2.07h6.49v-2.07h-6.49z" fill="#fff"/>
  <path d="m42.13 148.8v2.44h6.68v-2.44h-6.68z" fill="#fff"/>
  <path d="m51.01 148.8v4.11h5.47v-4.11h-5.47z" fill="#fff"/>
  <path d="m49.27 150.1v13.32h10.34v15.28h47.8v-15.28h5.97v-31.31h-2.49v-3.46h-26.27v-2.19h17.46v-3.05h-4.77v-2.3h-5.29v-2.13h-5.71v-2.28h-4.73v-2.45h-5v-3.65h-2.62v-6.15h-2.37v-7.85h3.19v-3.66h2.39v-1.85h10.49v1.85h3.45v3.1h2.49v6.15h16.47v-7.28h-1.9v-6.66h-1.99v-5.08h-3.02v-3.79h-6.08v-2.47h-5.32v-2.11h-18.06v0.85h-5.8v2.29h-5.22v2.53h-4.01v3.23h-2.49v5.11h-3.06v20.6h2.1v5.49h2.68v5.1h2.82v3.78h3.09v3.26h-8.1v1.66h19.94v10.1h17.13v24.16h-23.16v-16.65h-26.35v2.45h6v1.34z" fill="#fff"/>
  <defs>
    <linearGradient id="paint0_linear_221_39" x1="128" x2="128" y1="3.812" y2="252.6" gradientUnits="userSpaceOnUse">
      <stop stop-color="#00b178" offset="0"/>
      <stop stop-color="#527756" offset="1"/>
    </linearGradient>
  </defs>
</svg>
